<svg xmlns="http://www.w3.org/2000/svg" viewBox="0 0 720 400" width="720" height="400" role="img" aria-label="Profit by contact capacity">
  <text x="62.0" y="20.0" text-anchor="start" font-size="13" font-family="ui-sans-serif,system-ui,sans-serif" fill="#8b949e">Profit by contact capacity — risk-ranked vs value-ranked</text>
  <line x1="62" y1="354.0" x2="702" y2="354.0" stroke="#8b949e" stroke-opacity="0.18" stroke-width="1"/>
  <text x="54.0" y="358.0" text-anchor="end" font-size="10" font-family="ui-sans-serif,system-ui,sans-serif" fill="#8b949e">0</text>
  <line x1="62" y1="274.0" x2="702" y2="274.0" stroke="#8b949e" stroke-opacity="0.18" stroke-width="1"/>
  <text x="54.0" y="278.0" text-anchor="end" font-size="10" font-family="ui-sans-serif,system-ui,sans-serif" fill="#8b949e">2,315</text>
  <line x1="62" y1="194.0" x2="702" y2="194.0" stroke="#8b949e" stroke-opacity="0.18" stroke-width="1"/>
  <text x="54.0" y="198.0" text-anchor="end" font-size="10" font-family="ui-sans-serif,system-ui,sans-serif" fill="#8b949e">4,629</text>
  <line x1="62" y1="114.0" x2="702" y2="114.0" stroke="#8b949e" stroke-opacity="0.18" stroke-width="1"/>
  <text x="54.0" y="118.0" text-anchor="end" font-size="10" font-family="ui-sans-serif,system-ui,sans-serif" fill="#8b949e">6,944</text>
  <line x1="62" y1="34.0" x2="702" y2="34.0" stroke="#8b949e" stroke-opacity="0.18" stroke-width="1"/>
  <text x="54.0" y="38.0" text-anchor="end" font-size="10" font-family="ui-sans-serif,system-ui,sans-serif" fill="#8b949e">9,258</text>
  <text x="62.0" y="370.0" text-anchor="middle" font-size="10" font-family="ui-sans-serif,system-ui,sans-serif" fill="#8b949e">0</text>
  <text x="222.0" y="370.0" text-anchor="middle" font-size="10" font-family="ui-sans-serif,system-ui,sans-serif" fill="#8b949e">1,094</text>
  <text x="382.0" y="370.0" text-anchor="middle" font-size="10" font-family="ui-sans-serif,system-ui,sans-serif" fill="#8b949e">2,188</text>
  <text x="542.0" y="370.0" text-anchor="middle" font-size="10" font-family="ui-sans-serif,system-ui,sans-serif" fill="#8b949e">3,282</text>
  <text x="702.0" y="370.0" text-anchor="middle" font-size="10" font-family="ui-sans-serif,system-ui,sans-serif" fill="#8b949e">4,376</text>
  <line x1="62" y1="354" x2="702" y2="354" stroke="#8b949e" stroke-opacity="0.45"/>
  <line x1="62" y1="34" x2="62" y2="354" stroke="#8b949e" stroke-opacity="0.45"/>
  <text x="382.0" y="392.0" text-anchor="middle" font-size="11" font-family="ui-sans-serif,system-ui,sans-serif" fill="#8b949e">customers contacted (best first)</text>
  <g transform="translate(14,194.0) rotate(-90)"><text x="0.0" y="0.0" text-anchor="middle" font-size="11" font-family="ui-sans-serif,system-ui,sans-serif" fill="#8b949e">realised profit</text></g>
  <polyline points="62.0,354.0 93.9,295.3 125.9,258.2 157.9,234.2 190.0,207.1 222.0,196.4 253.9,181.5 285.9,169.3 317.9,149.9 350.0,134.9 382.0,126.5 413.9,122.8 445.9,111.0 477.9,112.3 510.0,105.2 542.0,102.0 573.9,103.7 605.9,107.7 637.9,108.8 670.0,113.8 702.0,121.6" fill="none" stroke="#9a6fb0" stroke-width="2.2"/>
  <polyline points="62.0,354.0 93.9,260.6 125.9,195.2 157.9,158.2 190.0,123.8 222.0,104.3 253.9,92.2 285.9,89.6 317.9,83.5 350.0,70.0 382.0,68.3 413.9,70.4 445.9,74.2 477.9,79.2 510.0,81.5 542.0,84.8 573.9,89.0 605.9,96.6 637.9,104.0 670.0,113.9 702.0,121.6" fill="none" stroke="#4c78a8" stroke-width="2.4"/>
  <circle cx="542.0" cy="102.0" r="4.5" fill="#9a6fb0"/>
  <circle cx="382.0" cy="68.3" r="4.5" fill="#4c78a8"/>
  <line x1="125.9" y1="34" x2="125.9" y2="354" stroke="#e45756" stroke-width="1" stroke-dasharray="3 3"/>
  <text x="131.9" y="46.0" text-anchor="start" font-size="10" font-family="ui-sans-serif,system-ui,sans-serif" fill="#e45756">budget</text>
  <line x1="494" y1="308" x2="516" y2="308" stroke="#9a6fb0" stroke-width="2.5"/>
  <text x="522.0" y="312.0" text-anchor="start" font-size="11" font-family="ui-sans-serif,system-ui,sans-serif" fill="#8b949e">ranked by predicted risk</text>
  <line x1="494" y1="325" x2="516" y2="325" stroke="#4c78a8" stroke-width="2.5"/>
  <text x="522.0" y="329.0" text-anchor="start" font-size="11" font-family="ui-sans-serif,system-ui,sans-serif" fill="#8b949e">ranked by expected value</text>
</svg>
